<mxfile host="" modified="2020-06-04T21:26:12.425Z" agent="5.0 (Macintosh; Intel Mac OS X 10_14_6) AppleWebKit/537.36 (KHTML, like Gecko) Code/1.45.1 Chrome/78.0.3904.130 Electron/7.2.4 Safari/537.36" etag="ZQ1-hgzY_v8o2Rmy0bLV" version="13.1.3">
    <diagram id="6hGFLwfOUW9BJ-s0fimq" name="Page-1">
        <mxGraphModel dx="910" dy="628" grid="0" gridSize="10" guides="1" tooltips="1" connect="1" arrows="1" fold="1" page="1" pageScale="1" pageWidth="827" pageHeight="1169" background="#ffffff" math="0" shadow="0">
            <root>
                <mxCell id="0"/>
                <mxCell id="1" parent="0"/>
                <mxCell id="7" value="" style="shape=umlLifeline;participant=umlActor;perimeter=lifelinePerimeter;whiteSpace=wrap;html=1;container=1;collapsible=0;recursiveResize=0;verticalAlign=top;spacingTop=36;labelBackgroundColor=#ffffff;outlineConnect=0;fillColor=#f5f5f5;strokeColor=#666666;fontColor=#333333;" parent="1" vertex="1">
                    <mxGeometry x="40" y="40" width="20" height="420" as="geometry"/>
                </mxCell>
                <mxCell id="10" value="" style="html=1;points=[];perimeter=orthogonalPerimeter;fillColor=#f5f5f5;strokeColor=#666666;fontColor=#333333;" parent="7" vertex="1">
                    <mxGeometry x="5" y="70" width="10" height="40" as="geometry"/>
                </mxCell>
                <mxCell id="8" value="" style="shape=umlLifeline;participant=umlBoundary;perimeter=lifelinePerimeter;whiteSpace=wrap;html=1;container=1;collapsible=0;recursiveResize=0;verticalAlign=top;spacingTop=36;labelBackgroundColor=#ffffff;outlineConnect=0;fillColor=#f5f5f5;strokeColor=#666666;fontColor=#333333;" parent="1" vertex="1">
                    <mxGeometry x="95" y="40" width="50" height="420" as="geometry"/>
                </mxCell>
                <mxCell id="16" value="" style="html=1;points=[];perimeter=orthogonalPerimeter;fontSize=10;align=center;fillColor=#f5f5f5;strokeColor=#666666;fontColor=#333333;" parent="8" vertex="1">
                    <mxGeometry x="20" y="70" width="10" height="40" as="geometry"/>
                </mxCell>
                <mxCell id="9" value="Пользователь" style="text;align=center;fontStyle=0;verticalAlign=middle;spacingLeft=3;spacingRight=3;rotatable=0;points=[[0,0.5],[1,0.5]];portConstraint=eastwest;fontSize=10;fillColor=none;strokeColor=none;fontColor=#333333;" parent="1" vertex="1">
                    <mxGeometry x="10" y="14" width="80" height="26" as="geometry"/>
                </mxCell>
                <mxCell id="11" value="Y.Forms" style="text;align=center;fontStyle=0;verticalAlign=middle;spacingLeft=3;spacingRight=3;rotatable=0;points=[[0,0.5],[1,0.5]];portConstraint=eastwest;fontSize=10;fillColor=none;strokeColor=none;fontColor=#333333;" parent="1" vertex="1">
                    <mxGeometry x="90" y="14" width="60" height="26" as="geometry"/>
                </mxCell>
                <mxCell id="15" value="заполнить&lt;br&gt;форму" style="html=1;verticalAlign=bottom;endArrow=block;fontSize=10;labelBackgroundColor=none;fontColor=#000000;fillColor=#f5f5f5;strokeColor=#666666;exitX=0.998;exitY=0.001;exitDx=0;exitDy=0;exitPerimeter=0;" parent="1" source="10" target="16" edge="1">
                    <mxGeometry width="80" relative="1" as="geometry">
                        <mxPoint x="60" y="100" as="sourcePoint"/>
                        <mxPoint x="270" y="120" as="targetPoint"/>
                    </mxGeometry>
                </mxCell>
                <mxCell id="17" value="" style="shape=umlLifeline;participant=umlBoundary;perimeter=lifelinePerimeter;whiteSpace=wrap;html=1;container=1;collapsible=0;recursiveResize=0;verticalAlign=top;spacingTop=36;labelBackgroundColor=#ffffff;outlineConnect=0;fontSize=10;align=center;fillColor=#f5f5f5;strokeColor=#666666;fontColor=#333333;" parent="1" vertex="1">
                    <mxGeometry x="170" y="40" width="50" height="420" as="geometry"/>
                </mxCell>
                <mxCell id="19" value="" style="html=1;points=[];perimeter=orthogonalPerimeter;fontSize=10;align=center;fillColor=#f5f5f5;strokeColor=#666666;fontColor=#333333;" parent="17" vertex="1">
                    <mxGeometry x="20" y="90" width="10" height="40" as="geometry"/>
                </mxCell>
                <mxCell id="50" value="" style="html=1;points=[];perimeter=orthogonalPerimeter;fillColor=#f5f5f5;fontSize=10;fontColor=#333333;strokeColor=#666666;" vertex="1" parent="17">
                    <mxGeometry x="20" y="320" width="10" height="80" as="geometry"/>
                </mxCell>
                <mxCell id="18" value="Y.Tracker" style="text;align=center;fontStyle=0;verticalAlign=middle;spacingLeft=3;spacingRight=3;rotatable=0;points=[[0,0.5],[1,0.5]];portConstraint=eastwest;fontSize=10;fillColor=none;strokeColor=none;fontColor=#333333;" parent="1" vertex="1">
                    <mxGeometry x="170" y="14" width="50" height="26" as="geometry"/>
                </mxCell>
                <mxCell id="20" value="создать&lt;br&gt;тикет" style="html=1;verticalAlign=bottom;endArrow=block;labelBackgroundColor=none;fontSize=10;fontColor=#000000;fillColor=#f5f5f5;strokeColor=#666666;entryX=0;entryY=0;entryDx=0;entryDy=0;entryPerimeter=0;" parent="1" source="16" target="19" edge="1">
                    <mxGeometry width="80" relative="1" as="geometry">
                        <mxPoint x="161" y="120" as="sourcePoint"/>
                        <mxPoint x="250" y="120" as="targetPoint"/>
                    </mxGeometry>
                </mxCell>
                <mxCell id="26" value="данные&lt;br&gt;тикета" style="html=1;verticalAlign=bottom;endArrow=block;labelBackgroundColor=none;fontSize=10;fontColor=#000000;fillColor=#f5f5f5;strokeColor=#666666;entryX=0;entryY=0;entryDx=0;entryDy=0;entryPerimeter=0;" parent="1" source="19" target="31" edge="1">
                    <mxGeometry width="80" relative="1" as="geometry">
                        <mxPoint x="280" y="140" as="sourcePoint"/>
                        <mxPoint x="295" y="150" as="targetPoint"/>
                    </mxGeometry>
                </mxCell>
                <mxCell id="28" value="&lt;font style=&quot;font-size: 10px&quot;&gt;ссылка на&lt;br&gt;тикет&lt;/font&gt;" style="html=1;verticalAlign=bottom;endArrow=open;dashed=1;endSize=8;fillColor=#f5f5f5;strokeColor=#666666;labelBackgroundColor=none;fontColor=#000000;exitX=0;exitY=1;exitDx=0;exitDy=0;exitPerimeter=0;" edge="1" parent="1" source="16" target="10">
                    <mxGeometry relative="1" as="geometry">
                        <mxPoint x="130" y="160" as="sourcePoint"/>
                        <mxPoint x="50" y="160" as="targetPoint"/>
                    </mxGeometry>
                </mxCell>
                <mxCell id="29" value="" style="shape=umlLifeline;participant=umlControl;perimeter=lifelinePerimeter;whiteSpace=wrap;html=1;container=1;collapsible=0;recursiveResize=0;verticalAlign=top;spacingTop=36;labelBackgroundColor=#ffffff;outlineConnect=0;fontColor=#333333;fillColor=#f5f5f5;strokeColor=#666666;" vertex="1" parent="1">
                    <mxGeometry x="240" y="40" width="40" height="420" as="geometry"/>
                </mxCell>
                <mxCell id="31" value="" style="html=1;points=[];perimeter=orthogonalPerimeter;fillColor=#f5f5f5;fontSize=10;fontColor=#333333;strokeColor=#666666;" vertex="1" parent="29">
                    <mxGeometry x="15" y="110" width="10" height="230" as="geometry"/>
                </mxCell>
                <mxCell id="49" value="принять&lt;br&gt;решение" style="html=1;verticalAlign=bottom;endArrow=block;labelBackgroundColor=none;strokeColor=#666666;fontSize=10;fontColor=#000000;fillColor=#f5f5f5;rounded=0;" edge="1" parent="29" source="31" target="31">
                    <mxGeometry x="-0.2857" width="80" relative="1" as="geometry">
                        <mxPoint x="30" y="270" as="sourcePoint"/>
                        <mxPoint x="110" y="270" as="targetPoint"/>
                        <Array as="points">
                            <mxPoint x="50" y="280"/>
                            <mxPoint x="50" y="300"/>
                        </Array>
                        <mxPoint as="offset"/>
                    </mxGeometry>
                </mxCell>
                <mxCell id="30" value="Core" style="text;align=center;fontStyle=0;verticalAlign=middle;spacingLeft=3;spacingRight=3;strokeColor=none;rotatable=0;points=[[0,0.5],[1,0.5]];portConstraint=eastwest;fontColor=#333333;fillColor=none;fontSize=10;" vertex="1" parent="1">
                    <mxGeometry x="240" y="14" width="40" height="26" as="geometry"/>
                </mxCell>
                <mxCell id="34" value="" style="shape=umlLifeline;participant=umlEntity;perimeter=lifelinePerimeter;whiteSpace=wrap;html=1;container=1;collapsible=0;recursiveResize=0;verticalAlign=top;spacingTop=36;labelBackgroundColor=#ffffff;outlineConnect=0;fillColor=#f5f5f5;fontSize=10;fontColor=#333333;strokeColor=#666666;" vertex="1" parent="1">
                    <mxGeometry x="310" y="40" width="40" height="420" as="geometry"/>
                </mxCell>
                <mxCell id="39" value="" style="html=1;points=[];perimeter=orthogonalPerimeter;fillColor=#f5f5f5;fontSize=10;fontColor=#333333;strokeColor=#666666;" vertex="1" parent="34">
                    <mxGeometry x="15" y="210" width="10" height="20" as="geometry"/>
                </mxCell>
                <mxCell id="44" value="" style="html=1;points=[];perimeter=orthogonalPerimeter;fillColor=#f5f5f5;fontSize=10;fontColor=#333333;strokeColor=#666666;" vertex="1" parent="34">
                    <mxGeometry x="15" y="130" width="10" height="20" as="geometry"/>
                </mxCell>
                <mxCell id="35" value="MongoDB" style="text;align=center;fontStyle=0;verticalAlign=middle;spacingLeft=3;spacingRight=3;strokeColor=none;rotatable=0;points=[[0,0.5],[1,0.5]];portConstraint=eastwest;fillColor=none;fontSize=10;fontColor=#000000;" vertex="1" parent="1">
                    <mxGeometry x="300" y="14" width="60" height="26" as="geometry"/>
                </mxCell>
                <mxCell id="40" value="сохранить&lt;br&gt;модель" style="html=1;verticalAlign=bottom;endArrow=block;labelBackgroundColor=none;strokeColor=#666666;fontSize=10;fontColor=#000000;fillColor=#f5f5f5;entryX=1;entryY=0;entryDx=0;entryDy=0;entryPerimeter=0;" edge="1" parent="1" source="42" target="39">
                    <mxGeometry width="80" relative="1" as="geometry">
                        <mxPoint x="285" y="220" as="sourcePoint"/>
                        <mxPoint x="350" y="190" as="targetPoint"/>
                    </mxGeometry>
                </mxCell>
                <mxCell id="41" value="" style="shape=umlLifeline;participant=umlControl;perimeter=lifelinePerimeter;whiteSpace=wrap;html=1;container=1;collapsible=0;recursiveResize=0;verticalAlign=top;spacingTop=36;labelBackgroundColor=#ffffff;outlineConnect=0;fillColor=#f5f5f5;fontSize=10;fontColor=#333333;strokeColor=#666666;" vertex="1" parent="1">
                    <mxGeometry x="380" y="40" width="40" height="420" as="geometry"/>
                </mxCell>
                <mxCell id="42" value="" style="html=1;points=[];perimeter=orthogonalPerimeter;fillColor=#f5f5f5;fontSize=10;fontColor=#333333;strokeColor=#666666;" vertex="1" parent="41">
                    <mxGeometry x="15" y="170" width="10" height="80" as="geometry"/>
                </mxCell>
                <mxCell id="38" value="создать модель" style="html=1;verticalAlign=bottom;endArrow=block;labelBackgroundColor=none;fontSize=10;fontColor=#000000;rounded=0;fillColor=#f5f5f5;strokeColor=#666666;entryX=-0.05;entryY=0;entryDx=0;entryDy=0;entryPerimeter=0;" edge="1" parent="1" source="31" target="42">
                    <mxGeometry x="0.0046" width="80" relative="1" as="geometry">
                        <mxPoint x="290" y="170" as="sourcePoint"/>
                        <mxPoint x="370" y="170" as="targetPoint"/>
                        <Array as="points"/>
                        <mxPoint as="offset"/>
                    </mxGeometry>
                </mxCell>
                <mxCell id="43" value="модель" style="html=1;verticalAlign=bottom;endArrow=open;dashed=1;endSize=8;labelBackgroundColor=none;strokeColor=#666666;fontSize=10;fontColor=#000000;exitX=-0.033;exitY=1.004;exitDx=0;exitDy=0;exitPerimeter=0;fillColor=#f5f5f5;" edge="1" parent="1" source="42" target="31">
                    <mxGeometry relative="1" as="geometry">
                        <mxPoint x="380" y="250" as="sourcePoint"/>
                        <mxPoint x="300" y="250" as="targetPoint"/>
                    </mxGeometry>
                </mxCell>
                <mxCell id="45" value="сохранить&lt;br&gt;обращение" style="html=1;verticalAlign=bottom;endArrow=block;labelBackgroundColor=none;strokeColor=#666666;fontSize=10;fontColor=#000000;entryX=0;entryY=0;entryDx=0;entryDy=0;entryPerimeter=0;fillColor=#f5f5f5;" edge="1" parent="1" source="31" target="44">
                    <mxGeometry width="80" relative="1" as="geometry">
                        <mxPoint x="290" y="170" as="sourcePoint"/>
                        <mxPoint x="370" y="170" as="targetPoint"/>
                    </mxGeometry>
                </mxCell>
                <mxCell id="46" value="ModelController" style="text;align=center;fontStyle=0;verticalAlign=middle;spacingLeft=3;spacingRight=3;strokeColor=none;rotatable=0;points=[[0,0.5],[1,0.5]];portConstraint=eastwest;fillColor=none;fontSize=10;fontColor=#333333;" vertex="1" parent="1">
                    <mxGeometry x="360" y="14" width="80" height="26" as="geometry"/>
                </mxCell>
                <mxCell id="51" value="указать&lt;br&gt;ОГЛ" style="html=1;verticalAlign=bottom;endArrow=block;labelBackgroundColor=none;strokeColor=#666666;fontSize=10;fontColor=#000000;fillColor=#f5f5f5;entryX=1;entryY=0;entryDx=0;entryDy=0;entryPerimeter=0;" edge="1" parent="1" source="31" target="50">
                    <mxGeometry width="80" relative="1" as="geometry">
                        <mxPoint x="270" y="360" as="sourcePoint"/>
                        <mxPoint x="220" y="360" as="targetPoint"/>
                    </mxGeometry>
                </mxCell>
                <mxCell id="52" value="" style="shape=umlLifeline;participant=umlActor;perimeter=lifelinePerimeter;whiteSpace=wrap;html=1;container=1;collapsible=0;recursiveResize=0;verticalAlign=top;spacingTop=36;labelBackgroundColor=#ffffff;outlineConnect=0;fillColor=#f5f5f5;fontSize=10;fontColor=#333333;strokeColor=#666666;" vertex="1" parent="1">
                    <mxGeometry x="460" y="40" width="20" height="420" as="geometry"/>
                </mxCell>
                <mxCell id="54" value="" style="html=1;points=[];perimeter=orthogonalPerimeter;fillColor=#f5f5f5;fontSize=10;fontColor=#333333;strokeColor=#666666;" vertex="1" parent="52">
                    <mxGeometry x="5" y="360" width="10" height="40" as="geometry"/>
                </mxCell>
                <mxCell id="55" value="ОГЛ" style="text;align=center;fontStyle=0;verticalAlign=middle;spacingLeft=3;spacingRight=3;strokeColor=none;rotatable=0;points=[[0,0.5],[1,0.5]];portConstraint=eastwest;fillColor=none;fontSize=10;fontColor=#333333;" vertex="1" parent="1">
                    <mxGeometry x="450" y="14" width="40" height="26" as="geometry"/>
                </mxCell>
                <mxCell id="56" value="передать на рассмотрение" style="html=1;verticalAlign=bottom;endArrow=block;labelBackgroundColor=none;strokeColor=#666666;fontSize=10;fontColor=#000000;fillColor=#f5f5f5;entryX=-0.003;entryY=-0.003;entryDx=0;entryDy=0;entryPerimeter=0;" edge="1" parent="1" source="50" target="54">
                    <mxGeometry width="80" relative="1" as="geometry">
                        <mxPoint x="200" y="400" as="sourcePoint"/>
                        <mxPoint x="470" y="400" as="targetPoint"/>
                    </mxGeometry>
                </mxCell>
                <mxCell id="57" value="решение вопроса" style="html=1;verticalAlign=bottom;endArrow=open;dashed=1;endSize=8;labelBackgroundColor=none;strokeColor=#666666;fontSize=10;fontColor=#000000;fillColor=#f5f5f5;entryX=0.996;entryY=0.999;entryDx=0;entryDy=0;entryPerimeter=0;" edge="1" parent="1" source="54" target="50">
                    <mxGeometry relative="1" as="geometry">
                        <mxPoint x="420" y="440" as="sourcePoint"/>
                        <mxPoint x="199.98000000000002" y="439.8800000000001" as="targetPoint"/>
                    </mxGeometry>
                </mxCell>
            </root>
        </mxGraphModel>
    </diagram>
</mxfile>
